<?xml version="1.0" encoding="utf-8"?><svg viewBox="0 0 36 35" xmlns="http://www.w3.org/2000/svg" xmlns:xlink="http://www.w3.org/1999/xlink"><style>:root>svg{display:none}:root>svg:target{display:block}</style><svg viewBox="0 0 20 20" id="arrow-next" xmlns="http://www.w3.org/2000/svg"><path d="M6.687 18.333l-1.479-1.479L12.062 10 5.208 3.146l1.48-1.48L15.02 10l-8.334 8.333z"/></svg><svg viewBox="0 0 21 20" id="arrow-prev" xmlns="http://www.w3.org/2000/svg"><path d="M14.306 18.333L5.972 10l8.334-8.333 1.479 1.479L8.93 10l6.854 6.854-1.48 1.48z"/></svg><svg viewBox="0 0 20 20" id="mail" xmlns="http://www.w3.org/2000/svg"><path d="M3.333 16.667c-.458 0-.85-.164-1.177-.49A1.602 1.602 0 011.666 15V5c0-.458.164-.85.49-1.178.327-.326.72-.49 1.177-.489h13.334c.458 0 .85.164 1.177.49.327.327.49.72.49 1.177v10c0 .458-.164.85-.49 1.177-.328.327-.72.49-1.178.49H3.333zM10 10.833L3.333 6.667V15h13.334V6.667L10 10.833zm0-1.666L16.666 5H3.333L10 9.167zm-6.667-2.5V5v10-8.333z"/></svg><svg viewBox="0 0 20 20" id="phone" xmlns="http://www.w3.org/2000/svg"><path d="M13.333.833H6.666a2.497 2.497 0 00-2.5 2.5v13.334c0 1.383 1.117 2.5 2.5 2.5h6.667c1.383 0 2.5-1.117 2.5-2.5V3.333c0-1.383-1.117-2.5-2.5-2.5zM14.166 15H5.833V3.333h8.333V15zm-2.5 2.5H8.333v-.833h3.333v.833z"/></svg><svg viewBox="0 0 36 35" id="service-icon" xmlns="http://www.w3.org/2000/svg"><path d="M29.666 5.833v17.5h-17.5v-17.5h17.5zm0-2.916h-17.5A2.925 2.925 0 009.25 5.833v17.5a2.925 2.925 0 002.916 2.917h17.5a2.925 2.925 0 002.917-2.917v-17.5a2.925 2.925 0 00-2.916-2.916zm-10.98 17.5l-5.061-5.105 2.041-2.056 3.02 3.034 7.48-7.54 2.042 2.056-9.523 9.61zM6.332 8.75H3.416v20.417a2.925 2.925 0 002.917 2.916H26.75v-2.916H6.333V8.75z"/></svg></svg>